<svg xmlns="http://www.w3.org/2000/svg" xmlns:xlink="http://www.w3.org/1999/xlink" viewBox="0 0 666 551.47"><defs><linearGradient id="Tkt_Blue" y1="275.73" x2="666" y2="275.73" gradientUnits="userSpaceOnUse"><stop offset="0" stop-color="#0075be"/><stop offset="0.99" stop-color="#005b97"/></linearGradient><linearGradient id="Tkt_Blue-2" x1="465.39" y1="276.56" x2="511.73" y2="276.56" xlink:href="#Tkt_Blue"/><linearGradient id="Tkt_Blue-3" x1="79.74" y1="224.91" x2="354.84" y2="224.91" xlink:href="#Tkt_Blue"/><linearGradient id="Tkt_Blue-4" x1="186.46" y1="398.36" x2="416.65" y2="398.36" xlink:href="#Tkt_Blue"/><linearGradient id="Tkt_Blue-5" x1="397.82" y1="107.13" x2="398.71" y2="107.13" xlink:href="#Tkt_Blue"/><linearGradient id="Tkt_Blue-6" x1="99.27" y1="276.54" x2="447.01" y2="276.54" xlink:href="#Tkt_Blue"/></defs><g id="Layer_2" data-name="Layer 2"><g id="Layer_1-2" data-name="Layer 1"><path d="M666,276.11c-4,2.83-6.45,4.13-8.34,6Q586.53,353,515.58,424c-17.09,17.2-32.58,36-50.21,52.6C416.2,522.81,357.54,548,290,551.13c-81,3.71-151-23.06-208.62-79.69C35.19,426.12,8.21,370.64,1.66,306.14c-8.9-87.7,18-163.57,80.13-225.87C195.36-33.56,383.35-25,487.13,97.69c5.85,6.91,12,13.58,18.42,20q75.91,76,152,151.73C659.45,271.3,661.77,272.77,666,276.11Zm-348.55-.21,93.88-93.57C378,131.5,307.75,97.3,233.8,116.55c-72.76,18.94-125.12,87-123.67,160.6,1.53,77.37,53.27,142.39,128,160.3C311.3,455,380.65,418.86,411.8,369.8Zm123.19-.58c0,26.85,22.36,49.19,49.14,49.07a49,49,0,1,0-49.14-49.07Z" style="fill:url(#Tkt_Blue)"/><path d="M511.73,276.26a23,23,0,0,1-23,23.44,23.2,23.2,0,0,1-23.38-23.14,23.46,23.46,0,0,1,22.76-23.13A22.94,22.94,0,0,1,511.73,276.26Z" style="fill:url(#Tkt_Blue-2)"/><path d="M175.4,139c7.58-8.21-6.6-19-3.79-28.67,2.17-13.26,39.1-25.66,51-24.86,4.25.58,9.09,5.7,10,10,3.11,3.81,3.81,15,10.45,14.41,12.64-3.17,25.39-1,38.15-2,17.14-1,25.59,9.21,31.9-11.92,3.53-15,20.94-12.29,30.85-5.17,3,.66,12.65,2.56,9.94,5.77C323.77,105,301.23,133,298.35,163.94c-82-12-165.78,66.88-130.19,153.77-12,21.92-38.86-7-75.13,46.61-33.73-65.85,13.14-33.48,12.78-63a149.68,149.68,0,0,1,0-53.56c-3.12-15.21-40.16-6.53-19.07-41.53,4.39-19.47,17.22-42,39-25.12,2.26,1.69,6,2.69,7.65-.33C145,165,158.28,149.11,175.4,139Z" style="fill:#fff;stroke-miterlimit:10;stroke:url(#Tkt_Blue-3)"/><path d="M416.29,369.66c-13.21,13.86-28.28,34.4-45.87,45.09-8.69,5.54,4.78,15.29,3.78,23.65,1,11.94-6.39,15.76-16.49,18.67-10.45,4.33-22.51,13.74-34,11.29-14.38-1-9.35-23.75-21.78-24.43a198.67,198.67,0,0,1-55.85.34c-18.63-1.82-7.2,40.42-44.23,18.67-45.52-9.35,28.44-18.37,20.57-73-.52-4.25,6.11-11.86,10.11-9,55.67,22.15,114.77-6,139.8-53.69" style="fill:#fff;stroke-miterlimit:10;stroke:url(#Tkt_Blue-4)"/><path d="M398.29,107.11l0,0h0Z" style="fill:#fff;stroke-miterlimit:10;stroke:url(#Tkt_Blue-5)"/><path d="M446,166.37c1.1-2.87-.43-20-5.62-13.44-10.95,10.63-21.62,21.54-32.42,32.31-7.11,7.91-16.58,4.95-24.38-.06-47.21-41.86-13.18-42.1,14.69-78-47.9-20.21-103.37,32.65-87.19,83.57C266.5,240.43,214.3,293.27,164.16,337.4c-86.34-7.88-85.86,123,1.48,112.35,29.28-3.22,51.12-32.26,47.83-61.48,29.94-45.3,80.28-80.88,117.14-122.71,40.48-39,10.83-21,56.55-24.19C423.3,236.91,450.66,202.44,446,166.37ZM184.49,386.83c-3.78,8.24-2.86,23-9.91,28.29-33.72,8.24-20.18,11.5-45.3-12.32-2.9-.27,4.36-30.15,8.39-30.82C169.54,363.49,161.46,360.93,184.49,386.83Z" style="fill:#fff;stroke-miterlimit:10;stroke:url(#Tkt_Blue-6)"/></g></g></svg>